<mxfile host="bcdabb53-67af-478e-88da-7557c89b5f8c" modified="2020-08-16T16:48:00.456Z" agent="5.0 (Windows NT 6.1; Win64; x64) AppleWebKit/537.36 (KHTML, like Gecko) Code/1.47.3 Chrome/78.0.3904.130 Electron/7.3.2 Safari/537.36" etag="7UeOxZzX31pqcSi3FHjm" version="13.1.3">
    <diagram id="6hGFLwfOUW9BJ-s0fimq" name="envs">
        <mxGraphModel dx="822" dy="480" grid="1" gridSize="10" guides="1" tooltips="1" connect="1" arrows="1" fold="1" page="1" pageScale="1" pageWidth="827" pageHeight="1169" math="0" shadow="0">
            <root>
                <mxCell id="0"/>
                <mxCell id="1" parent="0"/>
                <mxCell id="2" value="&lt;table cellpadding=&quot;4&quot; cellspacing=&quot;0&quot; border=&quot;1&quot; style=&quot;font-size: 1em ; width: 100% ; height: 100%&quot;&gt;&lt;tbody&gt;&lt;tr&gt;&lt;th&gt;settings&lt;/th&gt;&lt;th&gt;contents&lt;/th&gt;&lt;/tr&gt;&lt;tr&gt;&lt;td&gt;install&lt;/td&gt;&lt;td&gt;&lt;h3&gt;packages&lt;/h3&gt;&lt;div&gt;&lt;ol&gt;&lt;li&gt;&lt;font face=&quot;Courier New&quot;&gt;pip install numpy==1.14.6 -&amp;nbsp;&amp;gt;=1.15.0&lt;/font&gt; may cause segmentation fault&lt;br&gt;&lt;/li&gt;&lt;li&gt;&lt;font face=&quot;Courier New&quot;&gt;SLUGIFY_USES_TEXT_UNIDECODE=yes pip3 install apache-airflow -&amp;nbsp;&lt;/font&gt;since &lt;font face=&quot;Courier New&quot;&gt;airflow &amp;gt;= 1.10&lt;/font&gt;&lt;br&gt;&lt;/li&gt;&lt;li&gt;&lt;font face=&quot;Courier New&quot;&gt;pip install Fernet cryptography&lt;br&gt;&lt;/font&gt;&lt;/li&gt;&lt;li&gt;&lt;font face=&quot;Courier New&quot;&gt;pip install &quot;apache-airflow[password]&quot; - &lt;/font&gt;for authentication&lt;br&gt;&lt;/li&gt;&lt;li&gt;&lt;font face=&quot;Courier New&quot;&gt;pip install &quot;apache-airflow[hive]&quot; - &lt;/font&gt;for hive&lt;br&gt;&lt;/li&gt;&lt;li&gt;&lt;font face=&quot;Courier New&quot;&gt;pip install psycopg2-binary - &lt;/font&gt;for postgresql&lt;/li&gt;&lt;li&gt;&lt;font face=&quot;Courier New&quot;&gt;pip install &quot;apache-airflow[mssql]&quot; - &lt;/font&gt;for mssql&lt;br&gt;&lt;/li&gt;&lt;li&gt;&lt;font face=&quot;Courier New&quot;&gt;pip install &quot;apache-airflow[celery]&quot;&lt;br&gt;&lt;/font&gt;&lt;/li&gt;&lt;li&gt;&lt;font face=&quot;Courier New&quot;&gt;pip install &quot;apache-airflow[redis]&quot; - &lt;/font&gt;when use redis&amp;nbsp;for CeleryExecutor&lt;br&gt;&lt;/li&gt;&lt;li&gt;&lt;font face=&quot;Courier New&quot;&gt;pip install &quot;apache-airflow[rabbitmq]&quot;&amp;nbsp;&amp;nbsp;-&amp;nbsp;&lt;/font&gt;when use rabbitmq for CeleryExecutor&lt;/li&gt;&lt;/ol&gt;&lt;h3&gt;notes&lt;/h3&gt;&lt;/div&gt;&lt;div&gt;1. &lt;font face=&quot;Courier New&quot;&gt;apache-airflow[rabbitmq]&lt;/font&gt;&amp;nbsp;may encounter source error&lt;/div&gt;&lt;div&gt;&lt;ol&gt;&lt;li&gt;modify &lt;font face=&quot;Courier New&quot;&gt;&quot;except Exception, e&quot; &lt;/font&gt;to &quot;&lt;font face=&quot;Courier New&quot;&gt;except Exception as e&quot;&lt;/font&gt;&lt;/li&gt;&lt;li&gt;&lt;font face=&quot;Courier New&quot;&gt;python setup.py build&lt;/font&gt;&lt;/li&gt;&lt;li&gt;&lt;font face=&quot;Courier New&quot;&gt;python setup.py install&lt;/font&gt;&lt;/li&gt;&lt;/ol&gt;&lt;/div&gt;&lt;/td&gt;&lt;/tr&gt;&lt;tr&gt;&lt;td&gt;config&lt;/td&gt;&lt;td&gt;&lt;h3&gt;1. create user airflow&lt;/h3&gt;&lt;div&gt;&lt;div&gt;&lt;font face=&quot;Courier New&quot;&gt;sudo adduser airflow -M&lt;/font&gt;&lt;/div&gt;&lt;div&gt;&lt;font face=&quot;Courier New&quot;&gt;sudo passwd airflow&lt;/font&gt;&lt;/div&gt;&lt;div&gt;&lt;font face=&quot;Courier New&quot;&gt;sudo chown -R airflow: ${AIRFLOW_HOME}&lt;/font&gt;&lt;/div&gt;&lt;div&gt;&lt;span style=&quot;font-family: &amp;#34;courier new&amp;#34;&quot;&gt;sudo usermod -d ${AIRFLOW_HOME} airflow&lt;/span&gt;&lt;/div&gt;&lt;/div&gt;&lt;h3&gt;2. project config&lt;/h3&gt;&lt;div&gt;&lt;ol&gt;&lt;li&gt;&lt;font face=&quot;Courier New&quot;&gt;airflow.cfg&lt;/font&gt;&lt;br&gt;&lt;/li&gt;&lt;li&gt;&lt;font face=&quot;Courier New&quot;&gt;create_user.py&lt;/font&gt;&lt;/li&gt;&lt;/ol&gt;&lt;span style=&quot;font-family: &amp;#34;courier new&amp;#34; ; font-size: 1em&quot;&gt;python create_user.py&lt;/span&gt;&lt;br&gt;&lt;/div&gt;&lt;h3&gt;&lt;span style=&quot;font-size: 1em&quot;&gt;3. systemd&lt;/span&gt;&lt;/h3&gt;&lt;h4&gt;3.1.&amp;nbsp;&lt;span style=&quot;font-size: 1em&quot;&gt;airflow.conf&lt;/span&gt;&lt;/h4&gt;&lt;div&gt;&lt;span style=&quot;font-family: &amp;#34;courier new&amp;#34; ; font-size: 1em&quot;&gt;cp airflow.conf /etc/tmpfiles.d/&lt;/span&gt;&lt;/div&gt;&lt;h4&gt;3.2. airflow&lt;/h4&gt;&lt;div&gt;&lt;font face=&quot;Courier New&quot;&gt;cp airflow /etc/sysconfig/&lt;/font&gt;&lt;/div&gt;&lt;h4&gt;3.3 service&lt;/h4&gt;&lt;div&gt;&lt;font face=&quot;Courier New&quot;&gt;cp airflow-*er.service /usr/lib/systemd/system/&lt;br&gt;&lt;/font&gt;&lt;/div&gt;&lt;div&gt;&lt;ol&gt;&lt;li&gt;&lt;font face=&quot;Courier New&quot;&gt;airflow-webserver.service&lt;/font&gt;&lt;/li&gt;&lt;li&gt;&lt;font face=&quot;Courier New&quot;&gt;airflow-worker.service&lt;/font&gt;&lt;/li&gt;&lt;li&gt;&lt;font face=&quot;Courier New&quot;&gt;airflow-scheduler.service&lt;/font&gt;&lt;/li&gt;&lt;li&gt;&lt;font face=&quot;Courier New&quot;&gt;airflow-flower.service&lt;/font&gt;&lt;/li&gt;&lt;/ol&gt;&lt;h4&gt;3.4 firewall&lt;/h4&gt;&lt;/div&gt;&lt;div&gt;&lt;div&gt;&lt;ol&gt;&lt;li&gt;&lt;font face=&quot;Courier New&quot;&gt;sudo firewall-cmd --permanent --add-port=8000/tcp - &lt;/font&gt;webserver&lt;/li&gt;&lt;li&gt;&lt;font face=&quot;Courier New&quot;&gt;sudo firewall-cmd --permanent --add-port=5555/tcp - &lt;/font&gt;flower&lt;/li&gt;&lt;li&gt;&lt;font face=&quot;Courier New&quot;&gt;sudo systemctl reload firewalld&lt;/font&gt;&lt;/li&gt;&lt;/ol&gt;&lt;/div&gt;&lt;/div&gt;&lt;/td&gt;&lt;/tr&gt;&lt;tr&gt;&lt;td&gt;airflow.cfg&lt;/td&gt;&lt;td&gt;&lt;h3&gt;1.&amp;nbsp;sql_alchemy_conn&lt;/h3&gt;&lt;ol&gt;&lt;li&gt;&lt;font face=&quot;Courier New&quot;&gt;sql_alchemy_conn = postgresql+psycopg2://airflow:airflow@localhost:5432/proj&lt;/font&gt;&lt;/li&gt;&lt;li&gt;&lt;font face=&quot;Courier New&quot;&gt;sql_alchemy_conn = mysql://airflow:airflow@localhost/airflow?charset=utf8&lt;/font&gt;&lt;/li&gt;&lt;/ol&gt;&lt;h3&gt;2. executor&lt;/h3&gt;&lt;div&gt;&lt;ol&gt;&lt;li&gt;&lt;font face=&quot;Courier New&quot;&gt;executor = CeleryExecutor&lt;/font&gt;&lt;/li&gt;&lt;li&gt;&lt;font face=&quot;Courier New&quot;&gt;broker_url = redis://127.0.0.1:6379/15 - &lt;/font&gt;use redis&lt;/li&gt;&lt;li&gt;&lt;font face=&quot;Courier New&quot;&gt;broker_url = amqp://myairflow:airflowpass@localhost:5672/myvhost - &lt;/font&gt;use rabbitmq&lt;br&gt;&lt;/li&gt;&lt;/ol&gt;&lt;h3&gt;3.&amp;nbsp;result_backend (&lt;span style=&quot;font-weight: normal&quot;&gt;&lt;font style=&quot;font-size: 12px&quot;&gt;celery_result_backend &amp;lt;1.10&lt;/font&gt;&lt;/span&gt;)&lt;/h3&gt;&lt;/div&gt;&lt;div&gt;&lt;ol&gt;&lt;li&gt;&lt;font face=&quot;Courier New&quot;&gt;result_backend = db+postgresql://airflow:airflow@localhost:5432/proj&lt;/font&gt;&lt;/li&gt;&lt;li&gt;&lt;font face=&quot;Courier New&quot;&gt;result_backend = db+mysql://airflow:airflow@localhost/airflow?charset=utf8&lt;/font&gt;&lt;/li&gt;&lt;li&gt;&lt;font face=&quot;Courier New&quot;&gt;result_backend = redis://127.0.0.1:6379/15&lt;/font&gt;&lt;/li&gt;&lt;/ol&gt;&lt;h3&gt;4.&amp;nbsp;&lt;span&gt;authenticate&lt;/span&gt;&lt;/h3&gt;&lt;/div&gt;&lt;div&gt;&lt;span&gt;&lt;font face=&quot;Courier New&quot;&gt;&lt;div&gt;&lt;ol&gt;&lt;li&gt;&lt;span&gt;&lt;font face=&quot;Courier New&quot;&gt;&lt;div&gt;authenticate = True&lt;/div&gt;&lt;/font&gt;&lt;/span&gt;&lt;/li&gt;&lt;li&gt;&lt;span&gt;&lt;font face=&quot;Courier New&quot;&gt;&lt;div&gt;auth_backend = airflow.contrib.auth.backends.password_auth&lt;/div&gt;&lt;/font&gt;&lt;/span&gt;&lt;/li&gt;&lt;/ol&gt;&lt;/div&gt;&lt;/font&gt;&lt;/span&gt;&lt;/div&gt;&lt;/td&gt;&lt;/tr&gt;&lt;tr&gt;&lt;td&gt;create_user.py&lt;/td&gt;&lt;td&gt;&lt;font face=&quot;Courier New&quot;&gt;import airflow&lt;br&gt;from airflow import models, settings&lt;br&gt;from airflow.contrib.auth.backends.password_auth import PasswordUser&lt;br&gt;user = PasswordUser(models.User())&lt;br&gt;user.username = 'airflow'&lt;br&gt;user.email = 'new@example.com'&lt;br&gt;user.password = 'airflow'&lt;br&gt;session = settings.Session()&lt;br&gt;session.add(user)&lt;br&gt;session.commit()&lt;br&gt;session.close()&lt;/font&gt;&lt;br&gt;&lt;/td&gt;&lt;/tr&gt;&lt;tr&gt;&lt;td&gt;airflow.conf&lt;/td&gt;&lt;td&gt;&lt;font face=&quot;Courier New&quot;&gt;D /run/airflow 0755 airflow airflow&lt;/font&gt;&lt;br&gt;&lt;/td&gt;&lt;/tr&gt;&lt;tr&gt;&lt;td&gt;airflow&lt;/td&gt;&lt;td&gt;&lt;font face=&quot;Courier New&quot;&gt;AIRFLOW_HOME=/server/proj/airflow/test&lt;br&gt;SCHEDULER_RUNS=10&lt;br&gt;LD_LIBRARY_PATH=$LD_LIBRARY_PATH:/usr/local/lib&lt;br&gt;PYTHONPATH=${AIRFLOW_HOME}:${AIRFLOW_HOME}/plugins:${PYTHONPATH}&lt;br&gt;PATH=/server/proj/.env/airflow/bin:/usr/bin:/user/local/bin:/usr/local/sbin:/usr/sbin:${PATH}&lt;/font&gt;&lt;br&gt;&lt;/td&gt;&lt;/tr&gt;&lt;tr&gt;&lt;td&gt;airflow-webserver.service&lt;/td&gt;&lt;td&gt;&lt;font face=&quot;Courier New&quot;&gt;[Unit]&lt;br&gt;Description=Airflow webserver daemon &lt;br&gt;After=network.target postgresql.service redis.service&lt;br&gt;Wants=postgresql.service redis.service&lt;br&gt;&lt;br&gt;[Service]&lt;br&gt;EnvironmentFile=/etc/sysconfig/airflow&lt;br&gt;User=airflow&lt;br&gt;Group=airflow&lt;br&gt;Type=simple&lt;br&gt;ExecStart=/server/proj/.env/airflow/bin/airflow webserver -p 8000 --pid &lt;/font&gt;/run/airflow/webserver.pid&lt;br&gt;&lt;font face=&quot;Courier New&quot;&gt;Restart=on-failure&lt;/font&gt;&lt;br&gt;&lt;font face=&quot;Courier New&quot;&gt;RestartSec=5s&lt;/font&gt;&lt;br&gt;&lt;font face=&quot;Courier New&quot;&gt;PrivateTmp=true&lt;/font&gt;&lt;br&gt;&lt;br&gt;&lt;font face=&quot;Courier New&quot;&gt;[Install]&lt;br&gt;WantedBy=multi-user.target&lt;/font&gt;&lt;br&gt;&lt;/td&gt;&lt;/tr&gt;&lt;tr&gt;&lt;td&gt;airflow-worker.service&lt;/td&gt;&lt;td&gt;&lt;font face=&quot;Courier New&quot;&gt;[Unit]&lt;br&gt;Description=Airflow celery worker daemon&lt;br&gt;After=network.target postgresql.service redis.service&lt;br&gt;Wants=postgresql.service redis.service&lt;br&gt;&lt;br&gt;[Service]&lt;br&gt;EnvironmentFile=/etc/sysconfig/airflow&lt;br&gt;User=airflow&lt;br&gt;Group=airflow&lt;br&gt;Type=simple&lt;br&gt;ExecStart=/server/proj/.env/airflow/bin/airflow worker&lt;br&gt;Restart=on-failure&lt;br&gt;RestartSec=10s&lt;br&gt;&lt;br&gt;[Install]&lt;br&gt;WantedBy=multi-user.target&lt;br&gt;&lt;/font&gt;&lt;/td&gt;&lt;/tr&gt;&lt;tr&gt;&lt;td&gt;airflow-scheduler.service&lt;/td&gt;&lt;td&gt;&lt;font face=&quot;Courier New&quot;&gt;[Unit]&lt;br&gt;Description=Airflow scheduler daemon&lt;br&gt;After=network.target postgresql.service redis.service&lt;br&gt;Wants=postgresql.service redis.service&lt;br&gt;&lt;br&gt;[Service]&lt;br&gt;EnvironmentFile=/etc/sysconfig/airflow&lt;br&gt;User=airflow&lt;br&gt;Group=airflow&lt;br&gt;Type=simple&lt;br&gt;ExecStart=/server/proj/.env/airflow/bin/airflow scheduler&lt;br&gt;Restart=always&lt;br&gt;RestartSec=5s&lt;br&gt;&lt;br&gt;[Install]&lt;br&gt;WantedBy=multi-user.target&lt;br&gt;&lt;/font&gt;&lt;/td&gt;&lt;/tr&gt;&lt;tr&gt;&lt;td&gt;airflow-flower.service&lt;/td&gt;&lt;td&gt;&lt;font face=&quot;Courier New&quot;&gt;[Unit]&lt;br&gt;Description=Airflow celery flower&lt;br&gt;After=network.target postgresql.service redis.service&lt;br&gt;Wants=postgresql.service redis.service&lt;br&gt;&lt;br&gt;[Service]&lt;br&gt;EnvironmentFile=/etc/sysconfig/airflow&lt;br&gt;User=airflow&lt;br&gt;Group=airflow&lt;br&gt;Type=simple&lt;br&gt;ExecStart=/server/proj/.env/airflow/bin/airflow flower&lt;br&gt;Restart=on-failure&lt;br&gt;RestartSec=5s&lt;br&gt;&lt;br&gt;[Install]&lt;br&gt;WantedBy=multi-user.target&lt;/font&gt;&lt;br&gt;&lt;/td&gt;&lt;/tr&gt;&lt;/tbody&gt;&lt;/table&gt; " style="verticalAlign=top;align=left;overflow=fill;fontSize=12;fontFamily=Helvetica;html=1" parent="1" vertex="1">
                    <mxGeometry x="4" y="10" width="820" height="2630" as="geometry"/>
                </mxCell>
            </root>
        </mxGraphModel>
    </diagram>
</mxfile>